<?xml version="1.0" encoding="utf-8"?>
<!-- Generator: Adobe Illustrator 26.2.1, SVG Export Plug-In . SVG Version: 6.00 Build 0)  -->
<svg version="1.1" id="Camada_1" xmlns="http://www.w3.org/2000/svg" xmlns:xlink="http://www.w3.org/1999/xlink" x="0px" y="0px"
	 viewBox="0 0 1502.5 50.9" style="enable-background:new 0 0 1502.5 50.9;" xml:space="preserve">
<style type="text/css">
	.st0{fill:none;}
</style>
<polygon class="st0" points="1.9,1.9 25.2,1.9 25.2,50.9 27.1,50.9 27.1,0 0,0 0,50.9 1.9,50.9 "/>
<polygon class="st0" points="80.4,50.9 82.3,50.9 82.3,1.9 150.4,1.9 150.4,22.8 105.6,22.8 105.6,39.6 146,39.6 146,50.9 148,50.9 
	148,37.7 107.5,37.7 107.5,24.7 152.3,24.7 152.3,0 80.4,0 "/>
<g>
	<polygon class="st0" points="209.9,23.4 209.7,22.7 206.5,22.7 198.4,50.9 200.5,50.9 203,42.3 208,24.7 208.3,24.7 215.8,50.9 
		217.8,50.9 	"/>
	<polygon class="st0" points="188.6,0 173.5,50.9 175.5,50.9 190,1.9 226.2,1.9 240.8,50.9 242.8,50.9 227.7,0 	"/>
</g>
<polygon class="st0" points="268,50.9 270,50.9 270,1.9 293.4,1.9 293.4,39.7 293.2,39.4 293.2,50.9 295.2,50.9 295.2,46.6 
	295.3,46.8 295.3,0 268,0 "/>
<g>
	<polygon class="st0" points="328.5,50.9 330.4,50.9 330.4,1.9 353.7,1.9 353.7,50.9 355.6,50.9 355.6,0 328.5,0 	"/>
	<polygon class="st0" points="299.8,50.9 301.8,50.9 301.8,12.6 323.7,50.9 326,50.9 299.8,5.3 	"/>
</g>
<g>
	<path class="st0" d="M414.6,0h-38.3v24.7H416l1.4,0.1c9.5,0.5,14.2,5.6,14.2,15.6v10.6h1.9V40.4c0-10.8-5.1-16.6-15.1-17.5v-0.1
		h-40.3V1.9h36.4c28.4,0,42.2,13.8,42.2,42.2v6.8h1.9v-6.8C458.7,14.9,443.9,0,414.6,0z"/>
	<polygon class="st0" points="376.3,50.9 378.2,50.9 378.2,31.1 401.5,31.1 401.5,50.9 403.4,50.9 403.4,29.2 376.3,29.2 	"/>
</g>
<g>
	<path class="st0" d="M526.7,0h-50.2v50.9h1.9v-49h48.3c16.5,0,24.5,8,24.5,24.5v16.8c0,2.8-0.2,5.4-0.7,7.7h1.9
		c0.4-2.3,0.7-4.9,0.7-7.7V26.5C553.2,8.9,544.3,0,526.7,0z"/>
	<path class="st0" d="M525.4,44.9h-17.3v6h1.9v-4.1h15.3c0.1,0,0.3,0,0.4,0c1.3-0.1,2.2-1.3,2.1-2.6v-19c0-0.1,0-0.3,0-0.4
		c-0.1-1.3-1.3-2.2-2.6-2.1h-23.7v28.2h1.9V24.7h21.8c0.5,0,0.6,0.1,0.6,0.6v19C526.1,44.8,526,44.9,525.4,44.9z"/>
</g>
<g>
	<path class="st0" d="M627.1,22.8h-29.9c-0.1,0-0.3,0-0.4,0c-1.3,0.1-2.2,1.3-2.1,2.6v25.6h1.9V25.3c0-0.5,0.1-0.6,0.6-0.6l29.9,0
		c0.5,0,0.6,0.1,0.6,0.6v25.6h1.9V25.3c0-0.1,0-0.3,0-0.4C629.6,23.6,628.4,22.6,627.1,22.8z"/>
	<path class="st0" d="M628.4,0H596c-17.6,0-26.5,8.9-26.5,26.5v24.5h1.9V26.5c0-16.5,8-24.5,24.5-24.5h32.5c16.5,0,24.5,8,24.5,24.5
		v24.5h1.9V26.5C654.9,8.9,646,0,628.4,0z"/>
</g>
<polygon class="st0" points="676.5,50.9 678.4,50.9 678.4,1.9 701.8,1.9 701.8,50.9 703.7,50.9 703.7,0 676.5,0 "/>
<g>
	<polygon class="st0" points="733.3,50.9 735.4,50.9 758.3,1.9 786,1.9 786,50.9 788,50.9 788,0 757.1,0 	"/>
	<polygon class="st0" points="758.9,50.9 762.7,50.9 762.7,42.7 	"/>
	<polygon class="st0" points="708.3,50.9 710.2,50.9 710.2,10.6 729.1,50.9 731.2,50.9 708.3,2 	"/>
</g>
<g>
	<polygon class="st0" points="849.6,23.4 849.5,22.7 846.2,22.7 838.1,50.9 840.2,50.9 842.7,42.3 847.7,24.7 848,24.7 855.5,50.9 
		857.5,50.9 	"/>
	<polygon class="st0" points="828.3,0 813.2,50.9 815.2,50.9 829.7,1.9 866,1.9 880.5,50.9 882.5,50.9 867.4,0 	"/>
</g>
<g>
	<path class="st0" d="M956.7,44.9h-17.3v6h1.9v-4.1h15.4c0.1,0,0.3,0,0.4,0c1.3-0.1,2.2-1.3,2.1-2.6v-19c0-0.1,0-0.3,0-0.4
		c-0.1-1.3-1.3-2.2-2.6-2.1h-23.7v28.2h1.9V24.7h21.8c0.5,0,0.6,0.1,0.6,0.6v19C957.3,44.8,957.2,44.9,956.7,44.9z"/>
	<path class="st0" d="M958,0h-50.2v50.9h1.9v-49H958c16.5,0,24.5,8,24.5,24.5v16.8c0,2.8-0.2,5.4-0.7,7.7h1.9
		c0.4-2.3,0.7-4.9,0.7-7.7V26.5C984.4,8.9,975.5,0,958,0z"/>
</g>
<path class="st0" d="M1027.2,0c-17.6,0-26.5,8.9-26.5,26.5v24.5h1.9V26.5c0-16.5,8-24.5,24.5-24.5l37.2,0l10.7,8.2v12.6h-46.6
	c-0.1,0-0.3,0-0.4,0c-1.3,0.1-2.2,1.3-2.1,2.6v25.6h1.9V25.3c0-0.5,0.1-0.6,0.6-0.6h48.5V9.2L1065.1,0H1027.2z"/>
<polygon class="st0" points="1093.6,50.9 1095.5,50.9 1095.5,1.9 1163.6,1.9 1163.6,22.7 1118.8,22.7 1118.8,39.6 1159.2,39.6 
	1159.2,50.9 1161.2,50.9 1161.2,37.7 1120.7,37.7 1120.7,24.7 1165.5,24.7 1165.5,0 1093.6,0 "/>
<polygon class="st0" points="1182.1,50.9 1184.1,50.9 1184.1,1.9 1207.3,1.9 1207.3,50.9 1209.3,50.9 1209.3,0 1182.1,0 "/>
<polygon class="st0" points="1262.5,50.9 1264.5,50.9 1264.5,1.9 1287.7,1.9 1287.7,50.9 1289.7,50.9 1289.7,0 1262.5,0 "/>
<polygon class="st0" points="1310.3,50.9 1312.3,50.9 1312.3,1.9 1335.7,1.9 1335.7,39.7 1335.6,39.4 1335.6,50.9 1337.5,50.9 
	1337.5,46.6 1337.6,46.8 1337.6,0 1310.3,0 "/>
<g>
	<polygon class="st0" points="1370.8,50.9 1372.7,50.9 1372.7,1.9 1396,1.9 1396,50.9 1397.9,50.9 1397.9,0 1370.8,0 	"/>
	<polygon class="st0" points="1342.2,50.9 1344.1,50.9 1344.1,12.6 1366.1,50.9 1368.3,50.9 1342.2,5.3 	"/>
</g>
<g>
	<path class="st0" d="M1474.7,22.7h-29.9c-0.1,0-0.3,0-0.4,0c-1.3,0.1-2.2,1.3-2.1,2.6v25.6h1.9V25.3c0-0.5,0.1-0.6,0.6-0.6l29.9,0
		c0.5,0,0.6,0.1,0.6,0.6v25.6h1.9V25.3c0-0.1,0-0.3,0-0.4C1477.2,23.6,1476,22.6,1474.7,22.7z"/>
	<path class="st0" d="M1476,0h-32.5c-17.6,0-26.5,8.9-26.5,26.5v24.5h1.9V26.5c0-16.5,8-24.5,24.5-24.5h32.5
		c16.5,0,24.5,8,24.5,24.5v24.5h1.9V26.5C1502.5,8.9,1493.6,0,1476,0z"/>
</g>
</svg>
