<svg xmlns="http://www.w3.org/2000/svg" xmlns:xlink="http://www.w3.org/1999/xlink" width="1502.5" height="101.888" viewBox="0 0 1502.5 101.888"><defs><clipPath id="a"><rect width="1502.5" height="101.887" fill="#fff"/></clipPath></defs><g transform="translate(0 0)"><path d="M1.922,1.922h23.3V79.144H65.632V99.966H1.922ZM0,0V101.887H67.553V77.223H27.14V0Z" transform="translate(0 0.001)" fill="#fff"/><path d="M12.384,1.922H80.437V22.751H35.673v16.84H76.086V60.413H35.673V79.144H80.437V99.966H12.384ZM10.462,0V101.887h71.9V77.223H37.594V62.335H78.015V37.67H37.594v-13H82.366V0Z" transform="translate(69.95 0.001)" fill="#fff"/><g transform="translate(0 0)"><g clip-path="url(#a)"><path d="M133.011,101.881H100.56C83,101.881,74.1,92.98,74.1,75.425V26.457C74.1,8.9,83,0,100.56,0h32.451c17.563,0,26.463,8.9,26.463,26.456V75.425c0,17.555-8.9,26.456-26.463,26.456M100.56,1.923c-16.51,0-24.542,8.024-24.542,24.534V75.425c0,16.51,8.032,24.534,24.542,24.534h32.451c16.51,0,24.542-8.024,24.542-24.534V26.457c0-16.51-8.032-24.534-24.542-24.534Zm31.152,77.215H101.859a2.344,2.344,0,0,1-2.552-2.552V25.3a2.344,2.344,0,0,1,2.552-2.552h29.853a2.344,2.344,0,0,1,2.552,2.552v51.29a2.344,2.344,0,0,1-2.552,2.552M101.859,24.666c-.53,0-.63.1-.63.63v51.29c0,.53.1.63.63.63h29.853c.53,0,.63-.1.63-.63V25.3c0-.53-.1-.63-.63-.63Z" transform="translate(495.422 0.007)" fill="#fff"/><path d="M194.512,101.887H156.658c-17.555,0-26.456-8.9-26.456-26.463V26.456C130.2,8.9,139.1,0,156.658,0h37.854l11.937,9.177V24.665H157.964c-.53,0-.638.1-.638.638V76.585c0,.53.108.63.638.63h48.484v15.5ZM156.658,1.922c-16.51,0-24.534,8.024-24.534,24.534V75.424c0,16.51,8.024,24.542,24.534,24.542h37.193l10.676-8.209V79.136H157.964a2.346,2.346,0,0,1-2.559-2.552V25.3a2.348,2.348,0,0,1,2.559-2.559h46.563V10.123l-10.676-8.2Z" transform="translate(870.547 0.001)" fill="#fff"/><path d="M214.18,101.887h-71.9V0h71.9V24.665H169.408v13H209.83V62.335H169.408V77.223H214.18Zm-69.975-1.922h68.053V79.144H167.487V60.413h40.421V39.591H167.487V22.743h44.772V1.922H144.206Z" transform="translate(951.329 0.001)" fill="#fff"/><path d="M221.354,101.887H153.8V0h27.124V77.223h40.429Zm-65.632-1.922h63.71V79.144H179V1.922H155.723Z" transform="translate(1028.333 0.001)" fill="#fff"/><path d="M191.394,101.887H164.262V0h27.132Zm-25.211-1.922h23.289V1.922H166.184Z" transform="translate(1098.277 0.001)" fill="#fff"/><path d="M243.282,101.887H210.831c-17.555,0-26.456-8.9-26.456-26.463V26.456C184.375,8.9,193.276,0,210.831,0h32.451c17.563,0,26.463,8.9,26.463,26.456V75.424c0,17.563-8.9,26.463-26.463,26.463M210.831,1.922c-16.51,0-24.534,8.024-24.534,24.534V75.424c0,16.51,8.024,24.542,24.534,24.542h32.451c16.51,0,24.542-8.032,24.542-24.542V26.456c0-16.51-8.032-24.534-24.542-24.534Zm31.152,77.215H212.13a2.344,2.344,0,0,1-2.552-2.552V25.3a2.35,2.35,0,0,1,2.552-2.559h29.853a2.35,2.35,0,0,1,2.552,2.559V76.585a2.344,2.344,0,0,1-2.552,2.552M212.13,24.665c-.53,0-.63.1-.63.638V76.585c0,.53.1.63.63.63h29.853c.53,0,.63-.1.63-.63V25.3c0-.538-.1-.638-.63-.638Z" transform="translate(1232.755 0.001)" fill="#fff"/><path d="M62,101.887H34.872V0H62.165V46.839L62,46.555Zm-25.2-1.922H60.075V39.4l.169.284V1.922H36.794Z" transform="translate(233.159 0.001)" fill="#fff"/><path d="M94.743,101.887H66.135l-.277-.484L39.011,54.718V5.342L67.619,55.3V0H94.743ZM67.25,99.966H92.822V1.922H69.54v60.6L40.933,12.559V54.2Z" transform="translate(260.833 0.001)" fill="#fff"/><path d="M115.141,101.887H88.017V0h27.232Zm-25.2-1.922H113.22l.108-98.044H89.939Z" transform="translate(588.493 0.001)" fill="#fff"/><path d="M171.844,101.887H144.72V51.359L126.873,89.574H105.367l-.254-.553L92.147,61.043V1.952l23.973,51.22L141.015,0h30.829Zm-25.2-1.922h23.281V1.922H142.23L116.12,57.7,94.069,10.591V60.828L106.6,87.653h19.062L146.642,42.7Z" transform="translate(616.107 0.001)" fill="#fff"/><path d="M87.29,101.887H48.952v-72.7H76.076V77.223H88.743c10.461,0,15.549-5.134,15.549-15.7V40.368c0-10.03-4.627-15.134-14.15-15.6l-1.4-.092H48.952V0H87.29c29.292,0,44.134,14.85,44.134,44.134v13.62c0,29.284-14.842,44.134-44.134,44.134M50.874,99.966H87.29c28.408,0,42.212-13.8,42.212-42.212V44.134c0-28.4-13.8-42.212-42.212-42.212H50.874V22.751H91.149V22.9c10,.815,15.065,6.679,15.065,17.463V61.52c0,11.7-5.872,17.624-17.471,17.624H74.155V31.106H50.874Z" transform="translate(327.299 0.001)" fill="#fff"/><path d="M138.273,101.887H115.407l-.269-.523L93.647,59.252V44.91h17.271c.53,0,.63-.1.63-.63V25.3c0-.53-.1-.63-.63-.63H89.128v77.215H62V0h50.221c17.563,0,26.463,8.9,26.463,26.463v16.8c0,11.7-3.981,19.638-11.829,23.619l14.865,29Zm-21.7-1.922h20.591l2.352-4.135L124.231,65.993l.915-.423c7.817-3.536,11.614-10.83,11.614-22.305v-16.8c0-16.51-8.032-24.542-24.542-24.542h-48.3V99.966H87.207V22.751h23.712A2.344,2.344,0,0,1,113.47,25.3V44.28a2.344,2.344,0,0,1-2.552,2.552H95.569V59.014Z" transform="translate(414.513 0.001)" fill="#fff"/><path d="M113.519,101.887h-22.4L86.188,84.071H56.665L63.583,59.4h15.4L69.094,24.672h-.284L63.782,42.328,51.907,83.371l-5.119,18.516h-22.4l-3.574-5.442.131-.43L49.4,0H88.509l28.577,96.446ZM92.575,99.966h19.907l2.506-3.828L87.064,1.922H50.839L22.915,96.138l2.513,3.828H45.336l4.727-17.117,17.294-60.1h3.2l.192.692L81.53,61.32H65.035L59.2,82.149H87.64Z" transform="translate(139.185 0.001)" fill="#fff"/><path d="M196.748,101.887h-22.4l-4.934-17.816H139.894L146.812,59.4h15.4l-9.884-34.726h-.284l-5.027,17.655L135.136,83.371l-5.119,18.516h-22.4l-3.574-5.442.131-.43L132.631,0h39.107l28.577,96.446ZM175.8,99.966h19.907l2.506-3.828L170.293,1.922H134.068L106.144,96.138l2.513,3.828h19.907l4.727-17.117,17.294-60.1h3.2l.192.692L164.759,61.32H148.264l-5.834,20.829h28.439Z" transform="translate(695.665 0.001)" fill="#fff"/><path d="M194.384,101.887H171.51l-.269-.523L149.758,59.252V44.91h17.271c.53,0,.63-.1.63-.63V25.3c0-.53-.1-.63-.63-.63h-21.79v77.215H118.1V0h50.229c17.563,0,26.463,8.9,26.463,26.463v16.8c0,11.7-3.981,19.638-11.829,23.619l14.85,28.992Zm-21.706-1.922h20.6l2.352-4.135L180.341,65.993l.915-.423c7.817-3.536,11.614-10.83,11.614-22.305v-16.8c0-16.51-8.032-24.542-24.542-24.542H120.02V99.966h23.3V22.751h23.712a2.344,2.344,0,0,1,2.552,2.552V44.28a2.344,2.344,0,0,1-2.552,2.552H151.68V59.014Z" transform="translate(789.625 0.001)" fill="#fff"/><path d="M197.606,101.887H170.482V0h27.293V46.839l-.169-.284Zm-25.2-1.922h23.281V39.4l.169.284V1.922H172.4Z" transform="translate(1139.865 0.001)" fill="#fff"/><path d="M230.361,101.887H201.745l-.277-.484L174.621,54.718V5.342L203.229,55.3V0h27.132Zm-27.5-1.922h25.58V1.922H205.15v60.6l-28.608-49.96V54.2Z" transform="translate(1167.539 0.001)" fill="#fff"/></g></g></g></svg>