<svg xmlns="http://www.w3.org/2000/svg" width="503.264" height="139.7" viewBox="0 0 503.264 139.7">
  <g id="Grupo_8" data-name="Grupo 8" transform="translate(0 0.001)">
    <path id="Caminho_28" data-name="Caminho 28" d="M176.893,45.478V15.572Q176.893,0,192.467,0h19.817q15.572,0,15.574,15.572V45.478q0,15.572-15.574,15.572H192.467q-15.575,0-15.574-15.572m15.4.708a.859.859,0,0,0,.973.973H211.49a.86.86,0,0,0,.973-.973V14.864a.861.861,0,0,0-.973-.973H193.262a.86.86,0,0,0-.973.973Z" transform="translate(170.913 -0.001)" fill="#fff"/>
    <path id="Caminho_29" data-name="Caminho 29" d="M100.708,85.478V55.572Q100.708,40,116.282,40H139.2l6.9,5.307v8.584H117.077a.86.86,0,0,0-.973.973V86.186a.859.859,0,0,0,.973.971H146.1v8.584l-6.9,5.309H116.282q-15.575,0-15.574-15.572" transform="translate(97.303 38.647)" fill="#fff"/>
    <path id="Caminho_30" data-name="Caminho 30" d="M129.554,101.051V40h42.735V53.891h-27.34V63h24.686V76.9H144.949V87.159h27.34v13.891Z" transform="translate(125.174 38.647)" fill="#fff"/>
    <path id="Caminho_31" data-name="Caminho 31" d="M157.048,101.051V40h15.4V87.159h24.686v13.891Z" transform="translate(151.739 38.647)" fill="#fff"/>
    <rect id="Retângulo_5" data-name="Retângulo 5" width="15.395" height="61.05" transform="translate(357.891 78.648)" fill="#fff"/>
    <path id="Caminho_32" data-name="Caminho 32" d="M230.037,85.479V55.573Q230.037,40,245.611,40h19.817Q281,40,281,55.573V85.479q0,15.572-15.574,15.572H245.611q-15.575,0-15.574-15.572m15.4.708a.859.859,0,0,0,.973.971h18.229a.86.86,0,0,0,.973-.971V54.863a.861.861,0,0,0-.973-.973H246.406a.86.86,0,0,0-.973.973Z" transform="translate(222.26 38.648)" fill="#fff"/>
    <path id="Caminho_33" data-name="Caminho 33" d="M98.745,0h-15.5V61.05h15.4V25.659l.1.175Z" transform="translate(80.435 -0.001)" fill="#fff"/>
    <path id="Caminho_34" data-name="Caminho 34" d="M110.6,0V35.392L93.131,4.882v27.79L109.448,61.05h16.546V0Z" transform="translate(89.982 -0.001)" fill="#fff"/>
    <path id="Caminho_35" data-name="Caminho 35" d="M15.458,40H0v61.05H15.4Z" transform="translate(0 38.648)" fill="#fff"/>
    <path id="Caminho_36" data-name="Caminho 36" d="M39.49,40,23.916,73.269,9.862,43.243V76.692L17.725,93.53H30.11L41.968,68.137v32.914h15.4V40Z" transform="translate(9.528 38.648)" fill="#fff"/>
    <path id="Caminho_37" data-name="Caminho 37" d="M139.692,0H116.864V13.891h24.6v.059c6.111.3,9.2,3.649,9.2,10.116V36.984q0,10.175-10.087,10.175h-8.317V17.824h-15.4V61.05h22.828q26.364,0,26.367-26.367V26.367Q166.058,0,139.692,0" transform="translate(112.913 -0.001)" fill="#fff"/>
    <path id="Caminho_38" data-name="Caminho 38" d="M186.226,39.992q7.432-3.362,7.432-14.157V15.572Q193.658,0,178.084,0H148V61.05h15.4V13.891h13.891a.861.861,0,0,1,.973.973V26.455a.861.861,0,0,1-.973.973h-9.959V35.6L180.386,61.05h13.272l1.77-3.1Z" transform="translate(143 -0.001)" fill="#fff"/>
    <path id="Caminho_39" data-name="Caminho 39" d="M89.984,0h-23L49.724,58.219l1.86,2.831H64.5l3.006-10.883L74.76,25.1l3.191-11.211h1.062l6.37,22.385H75.645L71.753,50.167h17.7l3.01,10.883h12.918l1.856-2.831Z" transform="translate(48.043 -0.001)" fill="#fff"/>
    <path id="Caminho_40" data-name="Caminho 40" d="M78.554,40h-23L38.294,98.22l1.86,2.831H53.072l3.006-10.883L63.33,65.1l3.191-11.211h1.062l6.37,22.385H64.215L60.324,90.168h17.7l3.01,10.883H93.95l1.856-2.831Z" transform="translate(37 38.648)" fill="#fff"/>
    <path id="Caminho_41" data-name="Caminho 41" d="M110.043,79.992q7.432-3.362,7.432-14.157V55.572Q117.475,40,101.9,40H71.82v61.05h15.4V53.891h13.891a.861.861,0,0,1,.973.973V66.455a.861.861,0,0,1-.973.973H91.148V75.6L104.2,101.05h13.272l1.77-3.1Z" transform="translate(69.392 38.647)" fill="#fff"/>
    <path id="Caminho_42" data-name="Caminho 42" d="M212.368,40h-15.5v61.05h15.4V65.659l.1.175Z" transform="translate(190.217 38.648)" fill="#fff"/>
    <path id="Caminho_43" data-name="Caminho 43" d="M224.221,40V75.392L206.754,44.883v27.79l16.317,28.378h16.546V40Z" transform="translate(199.764 38.648)" fill="#fff"/>
    <path id="Caminho_26" data-name="Caminho 26" d="M0,0V61.05H40.081V47.159H15.4V0Z" transform="translate(0 -0.001)" fill="#fff"/>
    <path id="Caminho_27" data-name="Caminho 27" d="M24.975,0V61.05H67.71V47.159H40.37V36.9H65.054V23H40.37V13.891H67.71V0Z" transform="translate(24.131 -0.001)" fill="#fff"/>
  </g>
</svg>
