<svg xmlns="http://www.w3.org/2000/svg" xmlns:xlink="http://www.w3.org/1999/xlink" width="100" height="98.686" viewBox="0 0 100 98.686">
  <defs>
    <clipPath id="clip-path">
      <rect id="Retângulo_13" data-name="Retângulo 13" width="100" height="98.686" fill="#fc9200"/>
    </clipPath>
  </defs>
  <g id="ico" transform="translate(0 0)">
    <g id="ico_service-03" transform="translate(0 0)">
      <g id="Grupo_13" data-name="Grupo 13" clip-path="url(#clip-path)">
        <path id="Caminho_71" data-name="Caminho 71" d="M46.235,74.216a1.1,1.1,0,0,1-.75-.3l-17.569-16.4L10.578,73.912A1.1,1.1,0,0,1,8.765,72.8L26.853,10.637a1.1,1.1,0,0,1,1.053-.795h0a1.106,1.106,0,0,1,1.056.791L47.292,72.8a1.107,1.107,0,0,1-1.056,1.416M27.91,54.91a1.1,1.1,0,0,1,.753.3L44.039,69.557,27.917,14.863l-15.9,54.663L27.153,55.21a1.107,1.107,0,0,1,.757-.3" transform="translate(21.684 24.472)" fill="#fc9200"/>
        <path id="Caminho_72" data-name="Caminho 72" d="M27.434,36.226a1.109,1.109,0,0,1-.739-.282L11.281,22.035A1.1,1.1,0,0,1,12.759,20.4L28.173,34.3a1.106,1.106,0,0,1,.077,1.559,1.094,1.094,0,0,1-.816.363" transform="translate(27.152 50.018)" fill="#fc9200"/>
        <path id="Caminho_73" data-name="Caminho 73" d="M13.54,36.226a1.094,1.094,0,0,1-.816-.363A1.106,1.106,0,0,1,12.8,34.3L28.219,20.4a1.1,1.1,0,0,1,1.475,1.635L14.279,35.943a1.109,1.109,0,0,1-.739.282" transform="translate(30.932 50.018)" fill="#fc9200"/>
        <path id="Caminho_74" data-name="Caminho 74" d="M17.361,37.027a1.069,1.069,0,0,1-.642-.209,19.311,19.311,0,0,1-.157-31.237A1.1,1.1,0,1,1,17.87,7.356a17.11,17.11,0,0,0,.136,27.677,1.1,1.1,0,0,1-.645,1.994" transform="translate(21.599 13.346)" fill="#fc9200"/>
        <path id="Caminho_75" data-name="Caminho 75" d="M18.1,37.027a1.1,1.1,0,0,1-.645-1.994,17.11,17.11,0,0,0,.136-27.677,1.1,1.1,0,1,1,1.307-1.775,19.311,19.311,0,0,1-.157,31.237,1.069,1.069,0,0,1-.642.209" transform="translate(42.254 13.346)" fill="#fc9200"/>
        <path id="Caminho_76" data-name="Caminho 76" d="M18.179,54.492a1.087,1.087,0,0,1-.645-.209A31.922,31.922,0,0,1,17.28,2.656a1.1,1.1,0,1,1,1.3,1.775A29.716,29.716,0,0,0,18.824,52.5a1.1,1.1,0,0,1-.645,1.994" transform="translate(10.603 6.073)" fill="#fc9200"/>
        <path id="Caminho_77" data-name="Caminho 77" d="M21.261,54.492a1.1,1.1,0,0,1-.645-1.994,29.811,29.811,0,0,0,12.36-24.12A29.852,29.852,0,0,0,20.856,4.431a1.1,1.1,0,1,1,1.3-1.775A32.06,32.06,0,0,1,35.179,28.377,32.016,32.016,0,0,1,21.9,54.283a1.069,1.069,0,0,1-.642.209" transform="translate(50.125 6.073)" fill="#fc9200"/>
        <path id="Caminho_78" data-name="Caminho 78" d="M18.3,69.087a1.069,1.069,0,0,1-.642-.209A42.45,42.45,0,0,1,17.311.215,1.1,1.1,0,0,1,18.619,1.99a40.249,40.249,0,0,0,.324,65.1,1.1,1.1,0,0,1-.645,1.994" transform="translate(0 -0.001)" fill="#fc9200"/>
        <path id="Caminho_79" data-name="Caminho 79" d="M24.22,69.087a1.1,1.1,0,0,1-.645-1.994,40.375,40.375,0,0,0,16.739-32.67A40.422,40.422,0,0,0,23.9,1.99,1.1,1.1,0,0,1,25.206.215,42.637,42.637,0,0,1,42.517,34.423,42.575,42.575,0,0,1,24.861,68.878a1.069,1.069,0,0,1-.642.209" transform="translate(57.483 -0.001)" fill="#fc9200"/>
      </g>
    </g>
  </g>
</svg>
