<svg id="ico_service-01" xmlns="http://www.w3.org/2000/svg" xmlns:xlink="http://www.w3.org/1999/xlink" width="100" height="100.017" viewBox="0 0 100 100.017">
  <defs>
    <clipPath id="clip-path">
      <rect id="Retângulo_10" data-name="Retângulo 10" width="100" height="100.017" fill="#fc9200"/>
    </clipPath>
  </defs>
  <g id="Grupo_9" data-name="Grupo 9" clip-path="url(#clip-path)">
    <path id="Caminho_44" data-name="Caminho 44" d="M22.438,23.138A1.23,1.23,0,0,0,21.36,22.5H13.878L22.254,9.881a1.221,1.221,0,1,0-2.032-1.356L10.588,23.039a1.219,1.219,0,0,0,1.018,1.9H19.08L10.464,37.8A1.22,1.22,0,0,0,12.5,39.15l9.882-14.759a1.24,1.24,0,0,0,.06-1.253" transform="translate(33.637 26.164)" fill="#fc9200"/>
    <path id="Caminho_45" data-name="Caminho 45" d="M74.925,55.793a25.394,25.394,0,0,0,.727-5.882A24.918,24.918,0,0,0,71.9,36.7L84.422,24.184l5.617-2.691a1.184,1.184,0,0,0,.441-.368L99.7,8.882a1.218,1.218,0,0,0-.1-1.591L92.768.36a1.22,1.22,0,0,0-1.6-.111l-12.29,9.27a1.218,1.218,0,0,0-.368.449l-2.691,5.66L63.345,28.1a25.531,25.531,0,0,0-12.188-3.675A24.936,24.936,0,0,0,43.782,7.478,25.562,25.562,0,0,0,19.188.873a1.151,1.151,0,0,0-.556,2.062L32.959,17.262,29.1,28.851,17.5,32.714,3.176,18.391c-.582-.586-1.66-.5-2.079.851v.013a25.441,25.441,0,0,0,6.609,24.29,24.982,24.982,0,0,0,16.94,7.388,25.31,25.31,0,0,0,.659,4.86L3.86,77.242a13.361,13.361,0,0,0,18.9,18.9L44.205,74.693a25.892,25.892,0,0,0,5.938.727,25.4,25.4,0,0,0,5.886-.727L80.747,99.406a1.207,1.207,0,0,0,.86.359h8.586a1.217,1.217,0,0,0,.864-.359l8.586-8.581a1.231,1.231,0,0,0,.355-.864v-8.59a1.214,1.214,0,0,0-.355-.86ZM77.688,17.2a1.245,1.245,0,0,0,.24-.338l2.652-5.578,11.2-8.453,5.347,5.42L88.712,19.418,83.177,22.07a1.353,1.353,0,0,0-.334.24L70.48,34.673a24.8,24.8,0,0,0-5.112-5.146ZM3.082,21.741,16.313,34.972a1.2,1.2,0,0,0,1.245.3l12.889-4.3a1.237,1.237,0,0,0,.77-.774l4.3-12.881a1.22,1.22,0,0,0-.3-1.249L21.956,2.807a23.158,23.158,0,0,1,20.106,6.4,22.49,22.49,0,0,1,6.661,15.272,25.512,25.512,0,0,0-24,24.02A22.572,22.572,0,0,1,9.439,41.826,22.979,22.979,0,0,1,3.082,21.741m17.95,72.673a10.883,10.883,0,0,1-15.447-.145,10.826,10.826,0,0,1,0-15.3L26.105,58.441a25.572,25.572,0,0,0,1.574,3.572L10.692,79a1.219,1.219,0,0,0,1.724,1.724L29,64.148a25.537,25.537,0,0,0,2.254,2.875l-20.56,20.56a1.214,1.214,0,0,0,0,1.724,1.214,1.214,0,0,0,1.724,0l20.56-20.56a25.753,25.753,0,0,0,2.888,2.263L19.278,87.595a1.221,1.221,0,0,0,1.728,1.724L38,72.323a25.071,25.071,0,0,0,3.555,1.57ZM44.115,72.194a23.1,23.1,0,1,1,18.771-41.56A23.3,23.3,0,0,1,73.214,49.911a23.074,23.074,0,0,1-17.1,22.284,23.335,23.335,0,0,1-12,0M97.559,89.456l-7.871,7.871H82.116L58.682,73.893A25.53,25.53,0,0,0,74.125,58.441L97.559,81.875Z" transform="translate(-0.002 -0.002)" fill="#fc9200"/>
    <path id="Caminho_46" data-name="Caminho 46" d="M19.5,29.758a7.293,7.293,0,1,0,0-10.314,7.271,7.271,0,0,0,0,10.314m1.724-8.59a4.855,4.855,0,1,1,0,6.866,4.832,4.832,0,0,1,0-6.866" transform="translate(56.938 56.753)" fill="#fc9200"/>
  </g>
</svg>
