<svg id="ico_service-04" xmlns="http://www.w3.org/2000/svg" xmlns:xlink="http://www.w3.org/1999/xlink" width="100" height="69.088" viewBox="0 0 100 69.088">
  <defs>
    <clipPath id="clip-path">
      <rect id="Retângulo_14" data-name="Retângulo 14" width="100" height="69.088" fill="#fc9200"/>
    </clipPath>
  </defs>
  <g id="Grupo_15" data-name="Grupo 15" clip-path="url(#clip-path)">
    <path id="Caminho_80" data-name="Caminho 80" d="M18.182,54.492a1.087,1.087,0,0,1-.645-.209,31.917,31.917,0,0,1-.255-51.627,1.1,1.1,0,0,1,1.3,1.778A29.713,29.713,0,0,0,18.827,52.5a1.1,1.1,0,0,1-.645,1.994" transform="translate(10.6 6.076)" fill="#fc9200"/>
    <path id="Caminho_81" data-name="Caminho 81" d="M21.261,54.491a1.1,1.1,0,0,1-.645-1.994,29.82,29.82,0,0,0,12.36-24.12A29.857,29.857,0,0,0,20.857,4.43a1.1,1.1,0,1,1,1.3-1.771A32.045,32.045,0,0,1,35.176,28.376,32.013,32.013,0,0,1,21.9,54.282a1.069,1.069,0,0,1-.642.209" transform="translate(50.124 6.077)" fill="#fc9200"/>
    <path id="Caminho_82" data-name="Caminho 82" d="M18.3,69.085a1.069,1.069,0,0,1-.642-.209A42.45,42.45,0,0,1,17.311.213a1.1,1.1,0,0,1,1.307,1.775,40.249,40.249,0,0,0,.324,65.1,1.1,1.1,0,0,1-.645,1.994" transform="translate(0 0.001)" fill="#fc9200"/>
    <path id="Caminho_83" data-name="Caminho 83" d="M24.22,69.085a1.1,1.1,0,0,1-.645-1.994,40.384,40.384,0,0,0,16.739-32.67A40.422,40.422,0,0,0,23.9,1.988,1.1,1.1,0,0,1,25.207.213,42.637,42.637,0,0,1,42.518,34.421,42.58,42.58,0,0,1,24.862,68.875a1.069,1.069,0,0,1-.642.209" transform="translate(57.482 0.001)" fill="#fc9200"/>
    <path id="Caminho_84" data-name="Caminho 84" d="M26.127,52.689h-.056c-.122-.007-12.339-.746-15.979-11.555-2.374-7.057.331-12.189,2.957-15.875,2.3-3.229,3.131-9.5,3.141-9.567a1.1,1.1,0,0,1,1.9-.607c.15.16,1.51,1.7,3.183,5.9.07.181.139.359.206.53.024-1.294.017-2.772.007-4.369q-.005-1.37-.007-2.9c0-7.332,8.4-12.29,8.758-12.5a1.1,1.1,0,0,1,1.618,1.224,22.136,22.136,0,0,0-.45,7.416A15.386,15.386,0,0,0,33.6,15.6a29.5,29.5,0,0,1,3.3,7.653,12.451,12.451,0,0,1,2.615-5.143,1.1,1.1,0,0,1,1.918.739,23.671,23.671,0,0,0,1.217,6.394c.328,1.018.659,1.827.983,2.611.92,2.245,1.719,4.184,1.719,9.271,0,13.1-15.052,15.268-15.205,15.289a1.1,1.1,0,0,1-1.053-.471c-.024-.035-.617-.9-1.789-2.866-.042-.073-.087-.15-.126-.23a25.97,25.97,0,0,0,.052,2.643,1.1,1.1,0,0,1-1.1,1.2M17.86,18.8a22.719,22.719,0,0,1-3.019,7.74C12.379,30,10.134,34.356,12.18,40.43c2.556,7.583,9.857,9.466,12.785,9.919a26.876,26.876,0,0,1,.063-2.713c.16-2.061.52-5.254.533-5.387a1.1,1.1,0,0,1,1.095-.98h.007a1.105,1.105,0,0,1,1.091.99,18.15,18.15,0,0,0,1.436,5.694c.6,1.008,1.043,1.715,1.328,2.162,2.73-.537,12.622-3.155,12.622-12.988A18.118,18.118,0,0,0,41.586,28.7c-.321-.788-.687-1.681-1.039-2.782a30.049,30.049,0,0,1-.959-3.793,8.576,8.576,0,0,0-.76,3.64c.108,4-.251,5.579-1.043,7.409a8.067,8.067,0,0,1-2.312,2.985,1.1,1.1,0,0,1-1.663-1.335,18.958,18.958,0,0,0,.99-10.84,27.355,27.355,0,0,0-3.128-7.3,17.159,17.159,0,0,1-2.455-6,22.313,22.313,0,0,1,.021-5.544c-2.27,1.806-5.561,5.118-5.561,9.107,0,1.018.007,1.984.01,2.894.028,5.523.045,8.853-1.053,10.442a1.1,1.1,0,0,1-2-.715c0-.077.017-1.475-1.409-5.066A31.764,31.764,0,0,0,17.86,18.8" transform="translate(22.822 3.978)" fill="#fc9200"/>
  </g>
</svg>
