<svg xmlns="http://www.w3.org/2000/svg" xmlns:xlink="http://www.w3.org/1999/xlink" width="100" height="69.088" viewBox="0 0 100 69.088">
  <defs>
    <clipPath id="clip-path">
      <rect id="Retângulo_12" data-name="Retângulo 12" width="100" height="69.088" fill="#fc9200"/>
    </clipPath>
  </defs>
  <g id="ico" transform="translate(0 0)">
    <g id="ico_service-02" transform="translate(0 0)">
      <g id="Grupo_12" data-name="Grupo 12" clip-path="url(#clip-path)">
        <path id="Caminho_66" data-name="Caminho 66" d="M18.179,54.491a1.069,1.069,0,0,1-.642-.209A31.916,31.916,0,0,1,17.28,2.659a1.1,1.1,0,1,1,1.3,1.771A29.716,29.716,0,0,0,18.824,52.5a1.1,1.1,0,0,1-.645,1.994" transform="translate(10.603 6.077)" fill="#fc9200"/>
        <path id="Caminho_67" data-name="Caminho 67" d="M21.261,54.492a1.1,1.1,0,0,1-.645-1.994,29.713,29.713,0,0,0,.241-48.063,1.1,1.1,0,0,1,1.3-1.778A32.06,32.06,0,0,1,35.179,28.377,32.022,32.022,0,0,1,21.906,54.283a1.087,1.087,0,0,1-.645.209" transform="translate(50.125 6.076)" fill="#fc9200"/>
        <path id="Caminho_68" data-name="Caminho 68" d="M18.3,69.085a1.087,1.087,0,0,1-.645-.209A42.452,42.452,0,0,1,17.311.213a1.1,1.1,0,1,1,1.307,1.775,40.249,40.249,0,0,0,.324,65.1,1.1,1.1,0,0,1-.645,1.994" transform="translate(0 0.001)" fill="#fc9200"/>
        <path id="Caminho_69" data-name="Caminho 69" d="M24.22,69.085a1.1,1.1,0,0,1-.645-1.994,40.384,40.384,0,0,0,16.739-32.67A40.422,40.422,0,0,0,23.9,1.988,1.1,1.1,0,0,1,25.206.213,42.637,42.637,0,0,1,42.517,34.421,42.575,42.575,0,0,1,24.861,68.875a1.069,1.069,0,0,1-.642.209" transform="translate(57.483 0.001)" fill="#fc9200"/>
        <path id="Caminho_70" data-name="Caminho 70" d="M22.868,30.589A11.926,11.926,0,1,1,34.8,18.665,11.937,11.937,0,0,1,22.868,30.589m0-21.648a9.722,9.722,0,1,0,9.724,9.724,9.732,9.732,0,0,0-9.724-9.724" transform="translate(27.214 16.754)" fill="#fc9200"/>
      </g>
    </g>
  </g>
</svg>
