<svg id="logo" xmlns="http://www.w3.org/2000/svg" xmlns:xlink="http://www.w3.org/1999/xlink" width="90" height="96.328" viewBox="0 0 90 96.328">
  <defs>
    <clipPath id="clip-path">
      <rect id="Ret창ngulo_3" data-name="Ret창ngulo 3" width="90" height="96.328" fill="none"/>
    </clipPath>
    <clipPath id="clip-path-3">
      <rect id="Ret창ngulo_1" data-name="Ret창ngulo 1" width="75.134" height="64.945" fill="none"/>
    </clipPath>
  </defs>
  <g id="Grupo_6" data-name="Grupo 6" clip-path="url(#clip-path)">
    <g id="Grupo_5" data-name="Grupo 5">
      <g id="Grupo_4" data-name="Grupo 4" clip-path="url(#clip-path)">
        <path id="Caminho_1" data-name="Caminho 1" d="M81.162,8.425,19.925.093a10.245,10.245,0,0,0-11.5,8.745L.094,70.074a10.245,10.245,0,0,0,8.745,11.5l23.116,3.146a3.878,3.878,0,0,1,2.979-6.842l2.457.335,9.149,1.121a.883.883,0,0,0,.653-.176.894.894,0,0,0-.436-1.593L32.593,75.416c-5.1-.838-4.348-6.972-4.1-8.988.026-.215.045-.371.054-.484a.928.928,0,0,1,.014-.1,1.4,1.4,0,0,1-.013-.353c.5-5.117-2.125-9.416-4.9-13.968-2.871-4.707-5.839-9.573-5.961-15.918A25.661,25.661,0,0,1,25.571,16.69C29.279,13.2,35.891,9.228,46.33,10.068c8.281.667,14.97,4.214,19.343,10.259a28.444,28.444,0,0,1,5.2,15.537c.161,8.377-5.456,14.839-9.969,20.032l-.618.712a24.942,24.942,0,0,0-4.678,9.441,1.49,1.49,0,0,1-.045.5L55,68.694c-.013.079-.024.144-.025.159a1.462,1.462,0,0,1-.126.411l-.122.46a3.847,3.847,0,0,1-3.605,2.8,3.57,3.57,0,0,1-1-.116l-7.064-.96.008-.079a1.485,1.485,0,0,1,.3-2.806l.007-.08.381.039,6.885.938a1.3,1.3,0,0,1,.2.042.819.819,0,0,0,1.006-.567l.24-.9c.335-1.9,1.773-8.563,5.948-13.385l.622-.717c4.176-4.805,9.374-10.785,9.236-18.01-.15-7.854-4.908-21.508-21.793-22.868-7.4-.6-13.786,1.415-18.467,5.818a22.62,22.62,0,0,0-6.943,16.677c.106,5.535,2.86,10.05,5.523,14.416,2.911,4.773,5.919,9.705,5.327,15.817l-.012.07a1.392,1.392,0,0,1,.014.319c-.01.144-.034.343-.064.585-.577,4.7.477,5.518,1.583,5.7l14.078,2.136a3.886,3.886,0,0,1-.407,7.741,4.657,4.657,0,0,1-.549-.028l-9.887-1.211a1.5,1.5,0,0,1-.221-.048l-1.529-.2a.875.875,0,0,0-.656.174.89.89,0,0,0,.421,1.592L46.4,84.192a3.864,3.864,0,0,1,3.294,2.94l20.386,2.774a10.245,10.245,0,0,0,11.5-8.744l8.333-61.237a10.245,10.245,0,0,0-8.745-11.5M40.5,67.31a1.054,1.054,0,0,1-.666-1.334c.03-.088,8.019-18.582,8.019-18.582L33.228,49.568l8.716-29.321,12.044-2.467L44.809,41.673l14.191-2L41.855,66.737a1.153,1.153,0,0,1-1.359.573" transform="translate(0 0)" fill="#fc9200"/>
        <g id="Grupo_3" data-name="Grupo 3" transform="translate(2.694 2.173)" opacity="0.5">
          <g id="Grupo_2" data-name="Grupo 2">
            <g id="Grupo_1" data-name="Grupo 1" clip-path="url(#clip-path-3)">
              <path id="Caminho_2" data-name="Caminho 2" d="M3.627,67.871l7.722-56.754a9.5,9.5,0,0,1,10.658-8.1l56.754,7.723A208.222,208.222,0,0,0,36.294,34.968c-18.728,14.151-32.667,32.9-32.667,32.9" transform="translate(-3.627 -2.926)" fill="#fff"/>
            </g>
          </g>
        </g>
        <path id="Caminho_3" data-name="Caminho 3" d="M57.068,118.295a.886.886,0,0,1-.325.517.877.877,0,0,1-.656.165l-8.931-1.269-2.476-.385A3.885,3.885,0,0,0,43.514,125l9.847,1.494a1.556,1.556,0,0,0,.226.017,1.5,1.5,0,0,0,.224-2.979l-9.848-1.493a.894.894,0,0,1-.748-1.015.9.9,0,0,1,1.014-.747l1.3.19a1.407,1.407,0,0,0,.279.068l9.862,1.4a3.9,3.9,0,0,0,4.375-3.213Z" transform="translate(-10.35 -30.187)" fill="#fd9200"/>
      </g>
    </g>
  </g>
</svg>
