<svg id="logo" xmlns="http://www.w3.org/2000/svg" xmlns:xlink="http://www.w3.org/1999/xlink" width="360.882" height="89.183" viewBox="0 0 360.882 89.183">
  <defs>
    <clipPath id="clip-path">
      <rect id="Retângulo_514" data-name="Retângulo 514" width="360.882" height="89.183" transform="translate(0 0)" fill="none"/>
    </clipPath>
  </defs>
  <g id="Grupo_1443" data-name="Grupo 1443" transform="translate(0 0)" clip-path="url(#clip-path)">
    <path id="Caminho_2349" data-name="Caminho 2349" d="M32.315,16.157A16.157,16.157,0,1,0,16.158,32.314,16.157,16.157,0,0,0,32.315,16.157" fill="#00a3b3"/>
    <path id="Caminho_2350" data-name="Caminho 2350" d="M78.425,16.157A16.158,16.158,0,1,0,62.268,32.314,16.157,16.157,0,0,0,78.425,16.157" fill="#9c182f"/>
    <path id="Caminho_2351" data-name="Caminho 2351" d="M124.913,16.157a16.158,16.158,0,1,0-16.157,16.157,16.157,16.157,0,0,0,16.157-16.157" fill="#c6c6c6"/>
    <path id="Caminho_2352" data-name="Caminho 2352" d="M6.177,62.623H3.489V46.7H7.681l4.806,10,4.808-10h4.168V62.623H18.775V50.184L13.217,61.232h-1.5L6.177,50.184Z"/>
    <path id="Caminho_2353" data-name="Caminho 2353" d="M37.252,59l-1.595,3.622H32.786L39.8,46.7h2.871L49.69,62.622H46.82L45.225,59Zm6.88-2.483-2.893-6.561-2.893,6.561Z"/>
    <path id="Caminho_2354" data-name="Caminho 2354" d="M73.725,51.87q0,3.941-3.44,4.967l4.17,5.786H71.037l-3.8-5.354H63.7v5.354H61.013V46.7h5.924q3.645,0,5.217,1.229a4.7,4.7,0,0,1,1.571,3.942m-3.576,2.256a2.84,2.84,0,0,0,.82-2.267,2.425,2.425,0,0,0-.843-2.142,5.612,5.612,0,0,0-3.007-.58H63.7v5.695h3.349a4.926,4.926,0,0,0,3.1-.706"/>
    <path id="Caminho_2355" data-name="Caminho 2355" d="M92.5,49.159V62.623H89.81V49.159H84.98V46.7H97.328v2.46Z"/>
    <path id="Caminho_2356" data-name="Caminho 2356" d="M110.361,59l-1.6,3.622h-2.871L112.912,46.7h2.871L122.8,62.622h-2.87L118.334,59Zm6.88-2.483-2.893-6.561-2.893,6.561Z"/>
    <path id="Caminho_2357" data-name="Caminho 2357" d="M156.5,54.877h2.688v5.445a8.263,8.263,0,0,1-6.447,2.483,8.128,8.128,0,0,1-5.913-2.323,8.446,8.446,0,0,1,.046-11.8,8.091,8.091,0,0,1,5.867-2.37,8.34,8.34,0,0,1,5.718,2.005l-1.435,2.05a5.607,5.607,0,0,0-1.88-1.1,7.088,7.088,0,0,0-2.2-.308,5.662,5.662,0,0,0-4.056,1.561,5.606,5.606,0,0,0,3.817,9.717,6.881,6.881,0,0,0,3.793-.98Z"/>
    <path id="Caminho_2358" data-name="Caminho 2358" d="M185.164,60.424a8.731,8.731,0,0,1-11.938,0,8.358,8.358,0,0,1,0-11.754,8.731,8.731,0,0,1,11.938,0,8.358,8.358,0,0,1,0,11.754m-1.971-9.967a5.586,5.586,0,0,0-8,0,5.949,5.949,0,0,0,0,8.18,5.586,5.586,0,0,0,8,0,5.949,5.949,0,0,0,0-8.18"/>
    <path id="Caminho_2359" data-name="Caminho 2359" d="M212.024,46.7h2.688V62.623H211.8L202.774,51V62.623h-2.688V46.7h2.688l9.25,11.892Z"/>
    <path id="Caminho_2360" data-name="Caminho 2360" d="M235.514,60.185a5.633,5.633,0,0,0,2.392-.467,8.25,8.25,0,0,0,2.1-1.493L241.733,60a7.927,7.927,0,0,1-5.786,2.779l-.365.707a1.631,1.631,0,0,1,1.6,1.8,2,2,0,0,1-.706,1.515,2.545,2.545,0,0,1-1.789.649,3.577,3.577,0,0,1-1.9-.5l.593-1.3a1.866,1.866,0,0,0,.878.228.918.918,0,0,0,.694-.262.875.875,0,0,0,.251-.627.933.933,0,0,0-.262-.648.857.857,0,0,0-.661-.286,1.709,1.709,0,0,0-.672.115l.752-1.437a7.919,7.919,0,0,1-5.126-2.642,8.187,8.187,0,0,1-2.005-5.649,7.749,7.749,0,0,1,2.426-5.764,8.414,8.414,0,0,1,6.128-2.37,8.014,8.014,0,0,1,6.186,2.733l-1.709,1.869a7.442,7.442,0,0,0-2.153-1.526,6.015,6.015,0,0,0-2.38-.434,5.662,5.662,0,0,0-4.056,1.561,5.266,5.266,0,0,0-1.64,3.987,5.505,5.505,0,0,0,1.629,4.056,5.28,5.28,0,0,0,3.862,1.628"/>
    <path id="Caminho_2361" data-name="Caminho 2361" d="M256.38,59l-1.6,3.622h-2.87L258.933,46.7h2.87l7.017,15.924h-2.872L264.354,59Zm6.88-2.483-2.892-6.561-2.894,6.561Z"/>
    <path id="Caminho_2362" data-name="Caminho 2362" d="M280.143,62.623V46.7h2.688V60.072H290.1v2.551Z"/>
    <path id="Caminho_2363" data-name="Caminho 2363" d="M308.052,62.623h-3.007l-6.4-15.924h3.007l4.9,11.891,4.9-11.891h3.007Z"/>
    <path id="Caminho_2364" data-name="Caminho 2364" d="M337.03,46.7v2.529h-8.5v4.214h7.631v2.392h-7.631v4.26H337.3v2.529H325.845V46.7Z"/>
    <path id="Caminho_2365" data-name="Caminho 2365" d="M354.675,48.794a3.522,3.522,0,0,0-1.924.478A1.6,1.6,0,0,0,352,50.72a1.676,1.676,0,0,0,.753,1.48,11.277,11.277,0,0,0,3.2,1.1,8.818,8.818,0,0,1,3.691,1.663,3.942,3.942,0,0,1,1.24,3.155,4.178,4.178,0,0,1-1.572,3.384,6.258,6.258,0,0,1-4.123,1.3,9.682,9.682,0,0,1-6.628-2.573l1.685-2.029a7.585,7.585,0,0,0,5.011,2.1,3.428,3.428,0,0,0,2.062-.558,1.746,1.746,0,0,0,.764-1.481,1.66,1.66,0,0,0-.718-1.435,7.542,7.542,0,0,0-2.471-.935,22.2,22.2,0,0,1-2.666-.775,6.007,6.007,0,0,1-1.619-.923,3.849,3.849,0,0,1-1.411-3.28,3.99,3.99,0,0,1,1.606-3.406,6.468,6.468,0,0,1,3.975-1.2,9.517,9.517,0,0,1,3.029.5,7.909,7.909,0,0,1,2.6,1.413l-1.435,2.028a5.433,5.433,0,0,0-1.913-1.049,7.385,7.385,0,0,0-2.381-.41"/>
    <path id="Caminho_2366" data-name="Caminho 2366" d="M6.151,88.492a5.1,5.1,0,0,1-1.95-1.9,5.592,5.592,0,0,1,0-5.461,5.1,5.1,0,0,1,1.95-1.9,5.625,5.625,0,0,1,2.783-.69,5.831,5.831,0,0,1,2.1.368,4.346,4.346,0,0,1,1.635,1.087l-.48.5a4.4,4.4,0,0,0-3.225-1.245,4.848,4.848,0,0,0-2.4.6,4.375,4.375,0,0,0-1.7,1.657,4.845,4.845,0,0,0,0,4.725,4.382,4.382,0,0,0,1.7,1.657,4.858,4.858,0,0,0,2.4.6,4.4,4.4,0,0,0,3.225-1.259l.48.495a4.4,4.4,0,0,1-1.643,1.094,5.738,5.738,0,0,1-2.092.375,5.614,5.614,0,0,1-2.783-.69"/>
    <path id="Caminho_2367" data-name="Caminho 2367" d="M24.983,78.607h.765v9.81h6.045v.69h-6.81Z"/>
    <path id="Caminho_2368" data-name="Caminho 2368" d="M45.129,75.983h1.079l-2.355,1.769h-.809Zm-1.621,2.625h.765v10.5h-.765Z"/>
    <path id="Caminho_2369" data-name="Caminho 2369" d="M66.233,78.607v10.5H65.6l-7.155-9.12v9.12h-.765v-10.5h.645l7.14,9.12v-9.12Z"/>
    <rect id="Retângulo_512" data-name="Retângulo 512" width="0.765" height="10.5" transform="translate(79.643 78.608)"/>
    <path id="Caminho_2370" data-name="Caminho 2370" d="M95.475,88.492a5.1,5.1,0,0,1-1.95-1.9,5.592,5.592,0,0,1,0-5.461,5.1,5.1,0,0,1,1.95-1.9,5.625,5.625,0,0,1,2.783-.69,5.831,5.831,0,0,1,2.1.368,4.346,4.346,0,0,1,1.635,1.087l-.48.5a4.4,4.4,0,0,0-3.225-1.245,4.848,4.848,0,0,0-2.4.6A4.375,4.375,0,0,0,94.193,81.5a4.845,4.845,0,0,0,0,4.725,4.382,4.382,0,0,0,1.695,1.657,4.858,4.858,0,0,0,2.4.6,4.4,4.4,0,0,0,3.225-1.259l.48.495a4.4,4.4,0,0,1-1.643,1.094,5.738,5.738,0,0,1-2.092.375,5.614,5.614,0,0,1-2.783-.69"/>
    <path id="Caminho_2371" data-name="Caminho 2371" d="M120.518,86.153h-6.09l-1.335,2.955h-.825l4.83-10.5h.765l4.83,10.5h-.825Zm-.285-.645-2.76-6.061-2.745,6.061Z"/>
    <path id="Caminho_2372" data-name="Caminho 2372" d="M147.952,78.607h4.156a6.084,6.084,0,0,1,2.9.675,4.935,4.935,0,0,1,1.973,1.868,5.55,5.55,0,0,1,0,5.414,4.944,4.944,0,0,1-1.973,1.869,6.083,6.083,0,0,1-2.9.674h-4.156Zm4.1,9.81a5.478,5.478,0,0,0,2.564-.577,4.13,4.13,0,0,0,1.71-1.612,4.975,4.975,0,0,0,0-4.741,4.13,4.13,0,0,0-1.71-1.612,5.478,5.478,0,0,0-2.564-.577h-3.331v9.119Z"/>
    <path id="Caminho_2373" data-name="Caminho 2373" d="M177.337,88.417v.69h-7.245v-10.5h7.019V79.3h-6.254v4.14h5.6v.674h-5.6v4.305Z"/>
    <path id="Caminho_2374" data-name="Caminho 2374" d="M198.426,78.607v10.5h-.63l-7.155-9.12v9.12h-.765v-10.5h.645l7.14,9.12v-9.12Z"/>
    <path id="Caminho_2375" data-name="Caminho 2375" d="M213.846,79.3h-3.78v-.69h8.325v.69h-3.779v9.81h-.766Z"/>
    <path id="Caminho_2376" data-name="Caminho 2376" d="M236,86.152h-6.09l-1.335,2.955h-.825l4.83-10.5h.765l4.83,10.5h-.826Zm-.285-.645-2.76-6.06-2.745,6.06ZM234.2,75.982h1.08l-2.355,1.77h-.81Z"/>
    <path id="Caminho_2377" data-name="Caminho 2377" d="M257.121,89.107l-2.5-3.509a7.846,7.846,0,0,1-1.021.075h-3v3.434h-.765v-10.5H253.6a4.708,4.708,0,0,1,3.1.938,3.2,3.2,0,0,1,1.125,2.6,3.2,3.2,0,0,1-2.459,3.286l2.625,3.674ZM253.6,85a3.892,3.892,0,0,0,2.565-.742,2.952,2.952,0,0,0,0-4.215A3.892,3.892,0,0,0,253.6,79.3h-3V85Z"/>
    <rect id="Retângulo_513" data-name="Retângulo 513" width="0.765" height="10.5" transform="translate(270.382 78.608)"/>
    <path id="Caminho_2378" data-name="Caminho 2378" d="M291.051,86.153h-6.09l-1.335,2.955H282.8l4.83-10.5h.765l4.83,10.5H292.4Zm-.285-.645-2.76-6.061-2.745,6.061Z"/>
  </g>
</svg>
